<!DOCTYPE svg [<!ENTITY nbsp "&#160;">]><svg width="1568pt" height="572pt" viewBox="0 0 1568 572" xmlns="http://www.w3.org/2000/svg" xmlns:xlink="http://www.w3.org/1999/xlink">
<g id="graph0" class="graph" transform="scale(1 1) rotate(0) translate(4 567.8701)">
<title>g</title>
<polygon fill="#ffffff" stroke="transparent" points="-4,4 -4,-567.8701 1563.892,-567.8701 1563.892,4 -4,4"></polygon>
<g id="clust1" class="cluster">
<title>cluster_0</title>
<defs>
<linearGradient id="l_0" gradientUnits="userSpaceOnUse" x1="29.9915" y1="-157.7977" x2="73.1224" y2="-380.2023">
<stop offset="0" style="stop-color:#cccccc;stop-opacity:1.;"></stop>
<stop offset="1" style="stop-color:#fffaf0;stop-opacity:1.;"></stop>
</linearGradient>
</defs>
<polygon fill="url(#l_0)" stroke="#d3d3d3" points="23.4052,-96 23.4052,-442 79.7086,-442 79.7086,-96 23.4052,-96"></polygon>
</g>
<g id="clust2" class="cluster">
<title>cluster_A</title>
<defs>
<linearGradient id="l_1" gradientUnits="userSpaceOnUse" x1="570.8705" y1="-284.7222" x2="614.0014" y2="-431.2778">
<stop offset="0" style="stop-color:#cccccc;stop-opacity:1.;"></stop>
<stop offset="1" style="stop-color:#fffaf0;stop-opacity:1.;"></stop>
</linearGradient>
</defs>
<polygon fill="url(#l_1)" stroke="#ff0000" stroke-width="5" points="564.2842,-244 564.2842,-472 620.5876,-472 620.5876,-244 564.2842,-244"></polygon>
<text text-anchor="middle" x="592.4359" y="-432" font-family="comfortaa,roboto,Arial,sans-serif" font-size="40.00" fill="#000000">A</text>
</g>
<g id="clust3" class="cluster">
<title>cluster_B</title>
<defs>
<linearGradient id="l_2" gradientUnits="userSpaceOnUse" x1="570.8705" y1="-48.7222" x2="614.0014" y2="-195.2778">
<stop offset="0" style="stop-color:#cccccc;stop-opacity:1.;"></stop>
<stop offset="1" style="stop-color:#fffaf0;stop-opacity:1.;"></stop>
</linearGradient>
</defs>
<polygon fill="url(#l_2)" stroke="#0000ff" stroke-width="5" points="564.2842,-8 564.2842,-236 620.5876,-236 620.5876,-8 564.2842,-8"></polygon>
<text text-anchor="middle" x="592.4359" y="-196" font-family="comfortaa,roboto,Arial,sans-serif" font-size="40.00" fill="#000000">B</text>
</g>
<!-- a0 -->
<g id="node1" class="node">
<title>a0</title>
<defs>
<linearGradient id="l_3" gradientUnits="userSpaceOnUse" x1="51.5569" y1="-434.3045" x2="51.5569" y2="-393.6955">
<stop offset="0" style="stop-color:#ffff00;stop-opacity:1.;"></stop>
<stop offset="1" style="stop-color:#00ff00;stop-opacity:1.;"></stop>
</linearGradient>
</defs>
<ellipse fill="url(#l_3)" stroke="#ffff00" stroke-width="2" cx="51.5569" cy="-414" rx="20.3045" ry="20.3045"></ellipse>
<text text-anchor="middle" x="51.5569" y="-409.8" font-family="comfortaa,roboto,Arial,sans-serif" font-size="14.00" fill="#000000">a0</text>
</g>
<!-- AB&#45;Test -->
<g id="node13" class="node">
<title>AB-Test</title>
<polygon fill="#ffffe0" stroke="#cccccc" stroke-width="5" points="428.6241,-317.6008 198.4808,-317.6008 139.277,-220.3992 369.4203,-220.3992 428.6241,-317.6008"></polygon>
<text text-anchor="middle" x="283.9505" y="-258.8" font-family="comfortaa,roboto,Arial,sans-serif" font-size="34.00" fill="#000000">A/B Test</text>
</g>
<!-- a0&#45;&gt;AB&#45;Test -->
<g id="edge1" class="edge">
<title>a0-&gt;AB-Test</title>
<path fill="none" stroke="#000000" d="M79.7046,-398.5559C87.3508,-394.2553 95.5941,-389.5215 103.1138,-385 135.6927,-365.4108 170.9932,-343.0335 201.6847,-323.193"></path>
<polygon fill="#000000" stroke="#000000" points="203.7229,-326.0429 210.213,-317.6686 199.9172,-320.1678 203.7229,-326.0429"></polygon>
</g>
<!-- a1 -->
<g id="node2" class="node">
<title>a1</title>
<defs>
<linearGradient id="l_4" gradientUnits="userSpaceOnUse" x1="51.5569" y1="-376.3045" x2="51.5569" y2="-335.6955">
<stop offset="0" style="stop-color:#ffff00;stop-opacity:1.;"></stop>
<stop offset="1" style="stop-color:#00ff00;stop-opacity:1.;"></stop>
</linearGradient>
</defs>
<ellipse fill="url(#l_4)" stroke="#ffff00" stroke-width="2" cx="51.5569" cy="-356" rx="20.3045" ry="20.3045"></ellipse>
<text text-anchor="middle" x="51.5569" y="-351.8" font-family="comfortaa,roboto,Arial,sans-serif" font-size="14.00" fill="#000000">a1</text>
</g>
<!-- a1&#45;&gt;AB&#45;Test -->
<g id="edge2" class="edge">
<title>a1-&gt;AB-Test</title>
<path fill="none" stroke="#000000" d="M79.7078,-345.4613C104.9974,-335.9938 143.7348,-321.4918 180.702,-307.6526"></path>
<polygon fill="#000000" stroke="#000000" points="181.9916,-310.9071 190.1297,-304.1232 179.5373,-304.3515 181.9916,-310.9071"></polygon>
</g>
<!-- a2 -->
<g id="node3" class="node">
<title>a2</title>
<defs>
<linearGradient id="l_5" gradientUnits="userSpaceOnUse" x1="51.5569" y1="-318.3045" x2="51.5569" y2="-277.6955">
<stop offset="0" style="stop-color:#deb887;stop-opacity:1.;"></stop>
<stop offset="1" style="stop-color:#fff8dc;stop-opacity:1.;"></stop>
</linearGradient>
</defs>
<ellipse fill="url(#l_5)" stroke="#deb887" stroke-width="2" cx="51.5569" cy="-298" rx="20.3045" ry="20.3045"></ellipse>
<text text-anchor="middle" x="51.5569" y="-293.8" font-family="comfortaa,roboto,Arial,sans-serif" font-size="14.00" fill="#000000">a2</text>
</g>
<!-- a2&#45;&gt;AB&#45;Test -->
<g id="edge3" class="edge">
<title>a2-&gt;AB-Test</title>
<path fill="none" stroke="#000000" d="M79.7053,-294.4874C101.7754,-291.7333 134.0884,-287.701 166.5288,-283.6529"></path>
<polygon fill="#000000" stroke="#000000" points="167.3495,-287.0777 176.8391,-282.3663 166.4826,-280.1316 167.3495,-287.0777"></polygon>
</g>
<!-- a3 -->
<g id="node4" class="node">
<title>a3</title>
<defs>
<linearGradient id="l_6" gradientUnits="userSpaceOnUse" x1="51.5569" y1="-260.3045" x2="51.5569" y2="-219.6955">
<stop offset="0" style="stop-color:#ffff00;stop-opacity:1.;"></stop>
<stop offset="1" style="stop-color:#00ff00;stop-opacity:1.;"></stop>
</linearGradient>
</defs>
<ellipse fill="url(#l_6)" stroke="#ffff00" stroke-width="2" cx="51.5569" cy="-240" rx="20.3045" ry="20.3045"></ellipse>
<text text-anchor="middle" x="51.5569" y="-235.8" font-family="comfortaa,roboto,Arial,sans-serif" font-size="14.00" fill="#000000">a3</text>
</g>
<!-- a3&#45;&gt;AB&#45;Test -->
<g id="edge4" class="edge">
<title>a3-&gt;AB-Test</title>
<path fill="none" stroke="#000000" d="M79.7061,-243.5127C97.8658,-245.7788 122.96,-248.9103 149.3539,-252.2039"></path>
<polygon fill="#000000" stroke="#000000" points="148.9466,-255.6802 159.3031,-253.4455 149.8134,-248.734 148.9466,-255.6802"></polygon>
</g>
<!-- a4 -->
<g id="node5" class="node">
<title>a4</title>
<defs>
<linearGradient id="l_7" gradientUnits="userSpaceOnUse" x1="51.5569" y1="-202.3045" x2="51.5569" y2="-161.6955">
<stop offset="0" style="stop-color:#deb887;stop-opacity:1.;"></stop>
<stop offset="1" style="stop-color:#fff8dc;stop-opacity:1.;"></stop>
</linearGradient>
</defs>
<ellipse fill="url(#l_7)" stroke="#deb887" stroke-width="2" cx="51.5569" cy="-182" rx="20.3045" ry="20.3045"></ellipse>
<text text-anchor="middle" x="51.5569" y="-177.8" font-family="comfortaa,roboto,Arial,sans-serif" font-size="14.00" fill="#000000">a4</text>
</g>
<!-- a4&#45;&gt;AB&#45;Test -->
<g id="edge5" class="edge">
<title>a4-&gt;AB-Test</title>
<path fill="none" stroke="#000000" d="M79.7055,-192.5378C96.7485,-198.9181 119.8995,-207.5851 144.5005,-216.7948"></path>
<polygon fill="#000000" stroke="#000000" points="143.4956,-220.1558 154.088,-220.384 145.9498,-213.6001 143.4956,-220.1558"></polygon>
</g>
<!-- a5 -->
<g id="node6" class="node">
<title>a5</title>
<defs>
<linearGradient id="l_8" gradientUnits="userSpaceOnUse" x1="51.5569" y1="-144.3045" x2="51.5569" y2="-103.6955">
<stop offset="0" style="stop-color:#deb887;stop-opacity:1.;"></stop>
<stop offset="1" style="stop-color:#fff8dc;stop-opacity:1.;"></stop>
</linearGradient>
</defs>
<ellipse fill="url(#l_8)" stroke="#deb887" stroke-width="2" cx="51.5569" cy="-124" rx="20.3045" ry="20.3045"></ellipse>
<text text-anchor="middle" x="51.5569" y="-119.8" font-family="comfortaa,roboto,Arial,sans-serif" font-size="14.00" fill="#000000">a5</text>
</g>
<!-- a5&#45;&gt;AB&#45;Test -->
<g id="edge6" class="edge">
<title>a5-&gt;AB-Test</title>
<path fill="none" stroke="#000000" d="M79.7046,-139.4441C87.3508,-143.7447 95.5941,-148.4785 103.1138,-153 135.6927,-172.5892 170.9932,-194.9665 201.6847,-214.807"></path>
<polygon fill="#000000" stroke="#000000" points="199.9172,-217.8322 210.213,-220.3314 203.7229,-211.9571 199.9172,-217.8322"></polygon>
</g>
<!-- A1 -->
<g id="node7" class="node">
<title>A1</title>
<defs>
<linearGradient id="l_9" gradientUnits="userSpaceOnUse" x1="592.4359" y1="-408.3045" x2="592.4359" y2="-367.6955">
<stop offset="0" style="stop-color:#ffff00;stop-opacity:1.;"></stop>
<stop offset="1" style="stop-color:#00ff00;stop-opacity:1.;"></stop>
</linearGradient>
</defs>
<ellipse fill="url(#l_9)" stroke="#ffff00" stroke-width="2" cx="592.4359" cy="-388" rx="20.3045" ry="20.3045"></ellipse>
<text text-anchor="middle" x="592.4359" y="-383.8" font-family="comfortaa,roboto,Arial,sans-serif" font-size="14.00" fill="#000000">a0</text>
</g>
<!-- stateA -->
<g id="node14" class="node">
<title>stateA</title>
<path fill="#ffffff" stroke="#000000" stroke-width="2" d="M768.0846,-280C768.0846,-280 926.0846,-280 926.0846,-280 932.0846,-280 938.0846,-286 938.0846,-292 938.0846,-292 938.0846,-386 938.0846,-386 938.0846,-392 932.0846,-398 926.0846,-398 926.0846,-398 768.0846,-398 768.0846,-398 762.0846,-398 756.0846,-392 756.0846,-386 756.0846,-386 756.0846,-292 756.0846,-292 756.0846,-286 762.0846,-280 768.0846,-280"></path>
<polygon fill="#ffffff" stroke="transparent" points="764.0846,-284 764.0846,-394 930.0846,-394 930.0846,-284 764.0846,-284"></polygon>
<polygon fill="#ff0000" stroke="transparent" points="793.0846,-358 793.0846,-392 908.0846,-392 908.0846,-358 793.0846,-358"></polygon>
<text text-anchor="start" x="832.2487" y="-368.2" font-family="comfortaa,roboto,Arial,sans-serif" font-size="22.00" fill="#ffffff">Buy</text>
<text text-anchor="start" x="770.0846" y="-332.2" font-family="comfortaa,roboto,Arial,sans-serif" font-size="22.00" fill="#000000">Shirts for sale</text>
<polygon fill="#c0c0c0" stroke="transparent" points="812.0846,-286 812.0846,-320 906.0846,-320 906.0846,-286 812.0846,-286"></polygon>
<text text-anchor="start" x="830.5846" y="-296.2" font-family="comfortaa,roboto,Arial,sans-serif" font-size="22.00" fill="#000000">$29.95 &nbsp;</text>
</g>
<!-- A1&#45;&gt;stateA -->
<g id="edge9" class="edge">
<title>A1-&gt;stateA</title>
<path fill="none" stroke="#ff0000" stroke-width="4" d="M620.5857,-382.5834C650.856,-376.7587 700.7451,-367.1589 746.0078,-358.4494"></path>
<polygon fill="#ff0000" stroke="#ff0000" stroke-width="4" points="746.6889,-361.8826 755.8474,-356.556 745.3662,-355.0087 746.6889,-361.8826"></polygon>
</g>
<!-- A2 -->
<g id="node8" class="node">
<title>A2</title>
<defs>
<linearGradient id="l_10" gradientUnits="userSpaceOnUse" x1="592.4359" y1="-350.3045" x2="592.4359" y2="-309.6955">
<stop offset="0" style="stop-color:#deb887;stop-opacity:1.;"></stop>
<stop offset="1" style="stop-color:#fff8dc;stop-opacity:1.;"></stop>
</linearGradient>
</defs>
<ellipse fill="url(#l_10)" stroke="#deb887" stroke-width="2" cx="592.4359" cy="-330" rx="20.3045" ry="20.3045"></ellipse>
<text text-anchor="middle" x="592.4359" y="-325.8" font-family="comfortaa,roboto,Arial,sans-serif" font-size="14.00" fill="#000000">a2</text>
</g>
<!-- A3 -->
<g id="node9" class="node">
<title>A3</title>
<defs>
<linearGradient id="l_11" gradientUnits="userSpaceOnUse" x1="592.4359" y1="-292.3045" x2="592.4359" y2="-251.6955">
<stop offset="0" style="stop-color:#deb887;stop-opacity:1.;"></stop>
<stop offset="1" style="stop-color:#fff8dc;stop-opacity:1.;"></stop>
</linearGradient>
</defs>
<ellipse fill="url(#l_11)" stroke="#deb887" stroke-width="2" cx="592.4359" cy="-272" rx="20.3045" ry="20.3045"></ellipse>
<text text-anchor="middle" x="592.4359" y="-267.8" font-family="comfortaa,roboto,Arial,sans-serif" font-size="14.00" fill="#000000">a4</text>
</g>
<!-- B1 -->
<g id="node10" class="node">
<title>B1</title>
<defs>
<linearGradient id="l_12" gradientUnits="userSpaceOnUse" x1="592.4359" y1="-172.3045" x2="592.4359" y2="-131.6955">
<stop offset="0" style="stop-color:#ffff00;stop-opacity:1.;"></stop>
<stop offset="1" style="stop-color:#00ff00;stop-opacity:1.;"></stop>
</linearGradient>
</defs>
<ellipse fill="url(#l_12)" stroke="#ffff00" stroke-width="2" cx="592.4359" cy="-152" rx="20.3045" ry="20.3045"></ellipse>
<text text-anchor="middle" x="592.4359" y="-147.8" font-family="comfortaa,roboto,Arial,sans-serif" font-size="14.00" fill="#000000">a1</text>
</g>
<!-- stateB -->
<g id="node15" class="node">
<title>stateB</title>
<path fill="#ffffff" stroke="#000000" stroke-width="2" d="M768.0846,-118C768.0846,-118 926.0846,-118 926.0846,-118 932.0846,-118 938.0846,-124 938.0846,-130 938.0846,-130 938.0846,-224 938.0846,-224 938.0846,-230 932.0846,-236 926.0846,-236 926.0846,-236 768.0846,-236 768.0846,-236 762.0846,-236 756.0846,-230 756.0846,-224 756.0846,-224 756.0846,-130 756.0846,-130 756.0846,-124 762.0846,-118 768.0846,-118"></path>
<polygon fill="#ffffff" stroke="transparent" points="764.0846,-122 764.0846,-232 930.0846,-232 930.0846,-122 764.0846,-122"></polygon>
<polygon fill="#0000ff" stroke="transparent" points="793.0846,-196 793.0846,-230 908.0846,-230 908.0846,-196 793.0846,-196"></polygon>
<text text-anchor="start" x="832.2487" y="-206.2" font-family="comfortaa,roboto,Arial,sans-serif" font-size="22.00" fill="#ffffff">Buy</text>
<text text-anchor="start" x="770.0846" y="-170.2" font-family="comfortaa,roboto,Arial,sans-serif" font-size="22.00" fill="#000000">Shirts for sale</text>
<polygon fill="#c0c0c0" stroke="transparent" points="812.0846,-124 812.0846,-158 906.0846,-158 906.0846,-124 812.0846,-124"></polygon>
<text text-anchor="start" x="830.5846" y="-134.2" font-family="comfortaa,roboto,Arial,sans-serif" font-size="22.00" fill="#000000">$29.95 &nbsp;</text>
</g>
<!-- B1&#45;&gt;stateB -->
<g id="edge10" class="edge">
<title>B1-&gt;stateB</title>
<path fill="none" stroke="#0000ff" stroke-width="4" d="M620.585,-154.7635C650.8081,-157.7307 700.5894,-162.6179 745.7963,-167.0561"></path>
<polygon fill="#0000ff" stroke="#0000ff" stroke-width="4" points="745.6073,-170.5543 755.9014,-168.0481 746.2913,-163.5877 745.6073,-170.5543"></polygon>
</g>
<!-- B2 -->
<g id="node11" class="node">
<title>B2</title>
<defs>
<linearGradient id="l_13" gradientUnits="userSpaceOnUse" x1="592.4359" y1="-114.3045" x2="592.4359" y2="-73.6955">
<stop offset="0" style="stop-color:#ffff00;stop-opacity:1.;"></stop>
<stop offset="1" style="stop-color:#00ff00;stop-opacity:1.;"></stop>
</linearGradient>
</defs>
<ellipse fill="url(#l_13)" stroke="#ffff00" stroke-width="2" cx="592.4359" cy="-94" rx="20.3045" ry="20.3045"></ellipse>
<text text-anchor="middle" x="592.4359" y="-89.8" font-family="comfortaa,roboto,Arial,sans-serif" font-size="14.00" fill="#000000">a3</text>
</g>
<!-- B3 -->
<g id="node12" class="node">
<title>B3</title>
<defs>
<linearGradient id="l_14" gradientUnits="userSpaceOnUse" x1="592.4359" y1="-56.3045" x2="592.4359" y2="-15.6955">
<stop offset="0" style="stop-color:#deb887;stop-opacity:1.;"></stop>
<stop offset="1" style="stop-color:#fff8dc;stop-opacity:1.;"></stop>
</linearGradient>
</defs>
<ellipse fill="url(#l_14)" stroke="#deb887" stroke-width="2" cx="592.4359" cy="-36" rx="20.3045" ry="20.3045"></ellipse>
<text text-anchor="middle" x="592.4359" y="-31.8" font-family="comfortaa,roboto,Arial,sans-serif" font-size="14.00" fill="#000000">a5</text>
</g>
<!-- AB&#45;Test&#45;&gt;A1 -->
<g id="edge7" class="edge">
<title>AB-Test-&gt;A1</title>
<path fill="none" stroke="#ff0000" stroke-width="4" d="M371.3272,-317.7372C400.4152,-332.5291 433.4082,-347.8084 464.7872,-359 497.146,-370.541 535.8002,-378.5643 562.031,-383.1999"></path>
<polygon fill="#ff0000" stroke="#ff0000" stroke-width="4" points="553.6929,-384.1984 564.2842,-383.9234 555.8331,-377.5335 553.6929,-384.1984"></polygon>
</g>
<!-- AB&#45;Test&#45;&gt;B1 -->
<g id="edge8" class="edge">
<title>AB-Test-&gt;B1</title>
<path fill="none" stroke="#0000ff" stroke-width="4" d="M377.7628,-233.4196C441.629,-209.1969 521.9142,-178.7469 563.8845,-162.8288"></path>
<polygon fill="#0000ff" stroke="#0000ff" stroke-width="4" points="561.8776,-172.5177 564.2842,-162.1993 555.9682,-168.7648 561.8776,-172.5177"></polygon>
</g>
<!-- eval -->
<g id="node16" class="node">
<title>eval</title>
<polygon fill="#ffffff" stroke="#458b00" stroke-width="6" points="1113.2027,-295 981.2811,-295 981.2811,-221 1113.2027,-221 1113.2027,-295"></polygon>
<text text-anchor="middle" x="1047.2419" y="-250.5" font-family="comfortaa,roboto,Arial,sans-serif" font-size="25.00" fill="#000000">Evaluate</text>
</g>
<!-- stateA&#45;&gt;eval -->
<g id="edge11" class="edge">
<title>stateA-&gt;eval</title>
<path fill="none" stroke="#000000" stroke-width="4" d="M938.0852,-302.1737C949.3473,-297.6161 960.764,-292.996 971.7586,-288.5467"></path>
<polygon fill="#000000" stroke="#000000" stroke-width="4" points="973.3405,-291.6823 981.2973,-284.6866 970.7146,-285.1935 973.3405,-291.6823"></polygon>
</g>
<!-- stateB&#45;&gt;eval -->
<g id="edge12" class="edge">
<title>stateB-&gt;eval</title>
<path fill="none" stroke="#000000" stroke-width="4" d="M938.0852,-213.8263C949.3473,-218.3839 960.764,-223.004 971.7586,-227.4533"></path>
<polygon fill="#000000" stroke="#000000" stroke-width="4" points="970.7146,-230.8065 981.2973,-231.3134 973.3405,-224.3177 970.7146,-230.8065"></polygon>
</g>
<!-- decide -->
<g id="node17" class="node">
<title>decide</title>
<polygon fill="#d3d3d3" stroke="#000000" stroke-width="6" points="1358.1455,-296 1243.4805,-258 1358.1455,-220 1472.8106,-258 1358.1455,-296"></polygon>
<text text-anchor="middle" x="1358.1455" y="-250.5" font-family="comfortaa,roboto,Arial,sans-serif" font-size="25.00" fill="#000000">Decission</text>
</g>
<!-- eval&#45;&gt;decide -->
<g id="edge13" class="edge">
<title>eval-&gt;decide</title>
<path fill="none" stroke="#000000" stroke-width="4" d="M1113.1765,-258C1148.0867,-258 1192.1337,-258 1233.2193,-258"></path>
<polygon fill="#000000" stroke="#000000" stroke-width="4" points="1233.315,-261.5001 1243.315,-258 1233.315,-254.5001 1233.315,-261.5001"></polygon>
</g>
<!-- Users -->
<g id="node18" class="node">
<title>Users</title>
<ellipse fill="none" stroke="transparent" stroke-width="2" cx="51.5569" cy="-537" rx="51.6139" ry="26.7407"></ellipse>
<text text-anchor="middle" x="51.5569" y="-529.5" font-family="comfortaa,roboto,Arial,sans-serif" font-size="25.00" fill="#000000">Users</text>
</g>
<!-- Design Test -->
<g id="node19" class="node">
<title>Design Test</title>
<ellipse fill="none" stroke="transparent" stroke-width="2" cx="283.9505" cy="-537" rx="96.4821" ry="26.7407"></ellipse>
<text text-anchor="middle" x="283.9505" y="-529.5" font-family="comfortaa,roboto,Arial,sans-serif" font-size="25.00" fill="#000000">Design Test</text>
</g>
<!-- Users&#45;&gt;Design Test -->
<!-- Ranomize Users -->
<g id="node20" class="node">
<title>Ranomize Users</title>
<ellipse fill="none" stroke="transparent" stroke-width="2" cx="592.4359" cy="-537" rx="127.7975" ry="26.7407"></ellipse>
<text text-anchor="middle" x="592.4359" y="-529.5" font-family="comfortaa,roboto,Arial,sans-serif" font-size="25.00" fill="#000000">Ranomize Users</text>
</g>
<!-- Design Test&#45;&gt;Ranomize Users -->
<!-- Test -->
<g id="node21" class="node">
<title>Test</title>
<ellipse fill="none" stroke="transparent" stroke-width="2" cx="847.0846" cy="-537" rx="41.9966" ry="26.7407"></ellipse>
<text text-anchor="middle" x="847.0846" y="-529.5" font-family="comfortaa,roboto,Arial,sans-serif" font-size="25.00" fill="#000000">Test</text>
</g>
<!-- Ranomize Users&#45;&gt;Test -->
<!-- Evaluate -->
<g id="node22" class="node">
<title>Evaluate</title>
<ellipse fill="none" stroke="transparent" stroke-width="2" cx="1047.2419" cy="-537" rx="73.3149" ry="26.7407"></ellipse>
<text text-anchor="middle" x="1047.2419" y="-529.5" font-family="comfortaa,roboto,Arial,sans-serif" font-size="25.00" fill="#000000">Evaluate</text>
</g>
<!-- Test&#45;&gt;Evaluate -->
<!-- Decide if change is needed -->
<g id="node23" class="node">
<title>Decide if change is needed</title>
<ellipse fill="none" stroke="transparent" stroke-width="2" cx="1358.1455" cy="-537" rx="201.9931" ry="26.7407"></ellipse>
<text text-anchor="middle" x="1358.1455" y="-529.5" font-family="comfortaa,roboto,Arial,sans-serif" font-size="25.00" fill="#000000">Decide if change is needed</text>
</g>
<!-- Evaluate&#45;&gt;Decide if change is needed -->
</g>
</svg>